<svg width="188" height="40" viewBox="0 0 188 40" fill="none" xmlns="http://www.w3.org/2000/svg">
<g filter="url(#filter0_b_1256_20846)">
<path d="M5 5.3V34.6999C5 34.8656 5.14599 34.9999 5.32608 34.9999H11.0955C11.2756 34.9999 11.4216 34.8656 11.4216 34.6999V25.1226L20.2282 34.8914C20.2901 34.9601 20.3821 34.9999 20.4792 34.9999H33.3988C33.6619 34.9999 33.8167 34.728 33.6668 34.529L11.4216 5H5.32608C5.14599 5 5 5.13432 5 5.3Z" fill="url(#paint0_linear_1256_20846)"/>
</g>
<g filter="url(#filter1_bd_1256_20846)">
<path d="M34.9996 25.4702C34.9996 25.5858 34.9275 25.6911 34.8141 25.7409L15.7556 34.1183C15.4166 34.2673 15.1177 33.8578 15.3959 33.6255L34.4544 17.7098C34.6639 17.5349 34.9996 17.6716 34.9996 17.932V25.4702Z" fill="#F0EEEB" fill-opacity="0.7" shape-rendering="crispEdges"/>
<path d="M34.9998 5.3C34.9998 5.13431 34.8538 5 34.6737 5H28.788C28.6602 5 28.5442 5.06867 28.4913 5.17567L15.8527 30.7086C15.706 31.0049 16.1053 31.2738 16.3679 31.0557L34.8922 15.6721C34.9607 15.6153 34.9998 15.5343 34.9998 15.4494V5.3Z" fill="#F0EEEB" fill-opacity="0.7" shape-rendering="crispEdges"/>
<path d="M35.0003 27.4081C35.0003 27.1875 34.7502 27.0423 34.5338 27.1373L17.92 34.4292C17.6065 34.5668 17.713 35 18.0604 35H34.6742C34.8543 35 35.0003 34.8657 35.0003 34.7V27.4081Z" fill="#F0EEEB" fill-opacity="0.7" shape-rendering="crispEdges"/>
<path d="M34.8996 25.4702C34.8996 25.5426 34.8542 25.6141 34.7739 25.6494L15.7154 34.0268C15.5926 34.0807 15.4822 34.0342 15.4251 33.9559C15.3964 33.9166 15.3832 33.8718 15.3867 33.8298C15.3901 33.7896 15.4095 33.7444 15.4599 33.7022L34.5185 17.7866C34.5915 17.7256 34.6878 17.7177 34.7678 17.7503C34.8477 17.7828 34.8996 17.8499 34.8996 17.932V25.4702ZM34.6737 5.1C34.8066 5.1 34.8998 5.19723 34.8998 5.3V15.4494C34.8998 15.503 34.8752 15.5563 34.8283 15.5952L16.304 30.9787C16.2117 31.0554 16.0956 31.048 16.0127 30.9921C15.9309 30.9371 15.8957 30.8472 15.9423 30.753L28.5809 5.22003C28.6155 5.15003 28.6949 5.1 28.788 5.1H34.6737ZM34.574 27.2289C34.7363 27.1576 34.9003 27.2722 34.9003 27.4081V34.7C34.9003 34.8028 34.8071 34.9 34.6742 34.9H18.0604C17.9337 34.9 17.8596 34.824 17.8395 34.7423C17.8197 34.662 17.8498 34.5692 17.9602 34.5208L34.574 27.2289Z" stroke="url(#paint1_linear_1256_20846)" stroke-width="0.2" shape-rendering="crispEdges"/>
</g>
<path d="M46.98 18V7.92H48.499L51.985 15.06L55.471 7.92H56.99V18H55.415V11.539L52.321 18H51.649L48.562 11.539V18H46.98ZM61.9956 18.21C61.2396 18.21 60.5792 18.0397 60.0146 17.699C59.4499 17.3583 59.0112 16.8893 58.6986 16.292C58.3906 15.69 58.2366 14.9993 58.2366 14.22C58.2366 13.4267 58.3952 12.7313 58.7126 12.134C59.0299 11.5367 59.4709 11.07 60.0356 10.734C60.6002 10.398 61.2536 10.23 61.9956 10.23C62.7562 10.23 63.4189 10.4003 63.9836 10.741C64.5482 11.0817 64.9869 11.553 65.2996 12.155C65.6122 12.7523 65.7686 13.4407 65.7686 14.22C65.7686 15.004 65.6099 15.697 65.2926 16.299C64.9799 16.8963 64.5412 17.3653 63.9766 17.706C63.4119 18.042 62.7516 18.21 61.9956 18.21ZM61.9956 16.628C62.6676 16.628 63.1669 16.404 63.4936 15.956C63.8202 15.508 63.9836 14.9293 63.9836 14.22C63.9836 13.4873 63.8179 12.904 63.4866 12.47C63.1552 12.0313 62.6582 11.812 61.9956 11.812C61.5429 11.812 61.1696 11.9147 60.8756 12.12C60.5862 12.3207 60.3716 12.603 60.2316 12.967C60.0916 13.3263 60.0216 13.744 60.0216 14.22C60.0216 14.9527 60.1872 15.5383 60.5186 15.977C60.8546 16.411 61.3469 16.628 61.9956 16.628ZM70.1539 18.224C69.4352 18.2147 68.8239 18.0537 68.3199 17.741C67.8159 17.4283 67.4215 16.9873 67.1369 16.418C66.8522 15.8487 66.6795 15.1767 66.6189 14.402C66.5909 14.0053 66.5885 13.562 66.6119 13.072C66.6352 12.582 66.6865 12.1037 66.7659 11.637C66.8452 11.1703 66.9549 10.7737 67.0949 10.447C67.2395 10.1203 67.4285 9.81933 67.6619 9.544C67.8952 9.264 68.1472 9.03067 68.4179 8.844C68.7259 8.62933 69.0595 8.46367 69.4189 8.347C69.7829 8.23033 70.1632 8.14167 70.5599 8.081C70.9565 8.01567 71.3649 7.95733 71.7849 7.906C72.2049 7.85467 72.6202 7.78933 73.0309 7.71L73.1849 9.201C72.9235 9.26633 72.6202 9.31767 72.2749 9.355C71.9342 9.38767 71.5795 9.425 71.2109 9.467C70.8469 9.509 70.4992 9.56967 70.1679 9.649C69.8365 9.72833 69.5495 9.845 69.3069 9.999C68.9709 10.2043 68.7142 10.4983 68.5369 10.881C68.3595 11.2637 68.2545 11.6673 68.2219 12.092C68.5112 11.6627 68.8705 11.3617 69.2999 11.189C69.7339 11.0117 70.1725 10.923 70.6159 10.923C71.2879 10.923 71.8642 11.0817 72.3449 11.399C72.8302 11.7163 73.2012 12.148 73.4579 12.694C73.7192 13.2353 73.8499 13.8397 73.8499 14.507C73.8499 15.2537 73.6935 15.907 73.3809 16.467C73.0682 17.027 72.6342 17.461 72.0789 17.769C71.5235 18.077 70.8819 18.2287 70.1539 18.224ZM70.2379 16.642C70.8445 16.642 71.3019 16.4553 71.6099 16.082C71.9225 15.704 72.0789 15.2023 72.0789 14.577C72.0789 13.9377 71.9179 13.4337 71.5959 13.065C71.2785 12.6963 70.8259 12.512 70.2379 12.512C69.6405 12.512 69.1855 12.6963 68.8729 13.065C68.5602 13.4337 68.4039 13.9377 68.4039 14.577C68.4039 15.2303 68.5625 15.739 68.8799 16.103C69.1972 16.4623 69.6499 16.642 70.2379 16.642ZM81.6437 10.44V18H80.0267V13.065L76.4287 18H75.0777V10.44H76.6947V15.249L80.3067 10.44H81.6437ZM82.6093 18V16.586C82.8846 16.6373 83.097 16.6327 83.2463 16.572C83.3956 16.5067 83.5076 16.3853 83.5823 16.208C83.657 16.0307 83.7223 15.795 83.7783 15.501C83.853 15.0857 83.9183 14.6073 83.9743 14.066C84.035 13.5247 84.0863 12.946 84.1283 12.33C84.175 11.714 84.217 11.084 84.2543 10.44H89.8193V18H88.1393V12.022H85.7383C85.715 12.3253 85.687 12.666 85.6543 13.044C85.6216 13.4173 85.5866 13.7953 85.5493 14.178C85.512 14.5607 85.47 14.9247 85.4233 15.27C85.3813 15.6107 85.337 15.9023 85.2903 16.145C85.183 16.691 85.029 17.1227 84.8283 17.44C84.6323 17.7573 84.357 17.9603 84.0023 18.049C83.6476 18.1423 83.1833 18.126 82.6093 18ZM91.4789 18L91.4719 10.44H93.1589V12.96H94.5169C94.7269 12.96 94.9625 12.9647 95.2239 12.974C95.4899 12.9833 95.7115 13.0043 95.8889 13.037C96.3135 13.1303 96.6752 13.2797 96.9739 13.485C97.2772 13.6903 97.5082 13.9587 97.6669 14.29C97.8255 14.6213 97.9049 15.0203 97.9049 15.487C97.9049 16.1543 97.7322 16.6887 97.3869 17.09C97.0462 17.4867 96.5655 17.7573 95.9449 17.902C95.7582 17.944 95.5295 17.972 95.2589 17.986C94.9929 17.9953 94.7525 18 94.5379 18H91.4789ZM93.1589 16.677H94.6849C94.7875 16.677 94.9019 16.6723 95.0279 16.663C95.1539 16.6537 95.2752 16.6327 95.3919 16.6C95.6019 16.544 95.7862 16.418 95.9449 16.222C96.1082 16.0213 96.1899 15.7763 96.1899 15.487C96.1899 15.1837 96.1082 14.934 95.9449 14.738C95.7815 14.542 95.5809 14.4137 95.3429 14.353C95.2355 14.325 95.1235 14.3063 95.0069 14.297C94.8902 14.2877 94.7829 14.283 94.6849 14.283H93.1589V16.677ZM98.9238 18V10.44H100.611V13.422H104.006V10.44H105.693V18H104.006V15.004H100.611V18H98.9238ZM107.34 18L107.333 10.44H109.02V12.96H109.867C110.077 12.96 110.312 12.9647 110.574 12.974C110.84 12.9833 111.061 13.0043 111.239 13.037C111.663 13.1303 112.025 13.2797 112.324 13.485C112.627 13.6903 112.858 13.9587 113.017 14.29C113.175 14.6213 113.255 15.0203 113.255 15.487C113.255 16.1543 113.082 16.6887 112.737 17.09C112.391 17.4867 111.908 17.7573 111.288 17.902C111.106 17.944 110.879 17.972 110.609 17.986C110.338 17.9953 110.098 18 109.888 18H107.34ZM109.02 16.677H110.035C110.137 16.677 110.252 16.6723 110.378 16.663C110.504 16.6537 110.623 16.6327 110.735 16.6C110.945 16.544 111.131 16.418 111.295 16.222C111.458 16.0213 111.54 15.7763 111.54 15.487C111.54 15.1837 111.458 14.934 111.295 14.738C111.131 14.542 110.931 14.4137 110.693 14.353C110.581 14.325 110.466 14.3063 110.35 14.297C110.238 14.2877 110.133 14.283 110.035 14.283H109.02V16.677ZM114.046 18V10.44H115.733V18H114.046ZM120.833 18.21C120.068 18.21 119.396 18.0443 118.817 17.713C118.239 17.3817 117.786 16.922 117.459 16.334C117.137 15.746 116.976 15.0693 116.976 14.304C116.976 13.478 117.135 12.7617 117.452 12.155C117.77 11.5437 118.211 11.07 118.775 10.734C119.34 10.398 119.993 10.23 120.735 10.23C121.519 10.23 122.184 10.4143 122.73 10.783C123.281 11.147 123.689 11.6627 123.955 12.33C124.221 12.9973 124.322 13.7837 124.256 14.689H122.583V14.073C122.579 13.2517 122.434 12.652 122.149 12.274C121.865 11.896 121.417 11.707 120.805 11.707C120.115 11.707 119.601 11.9217 119.265 12.351C118.929 12.7757 118.761 13.3987 118.761 14.22C118.761 14.9853 118.929 15.578 119.265 15.998C119.601 16.418 120.091 16.628 120.735 16.628C121.151 16.628 121.508 16.537 121.806 16.355C122.11 16.1683 122.343 15.9 122.506 15.55L124.172 16.054C123.883 16.7353 123.435 17.265 122.828 17.643C122.226 18.021 121.561 18.21 120.833 18.21ZM118.229 14.689V13.415H123.43V14.689H118.229ZM131.654 18.21C130.917 18.21 130.298 18.035 129.799 17.685C129.3 17.335 128.924 16.859 128.672 16.257C128.42 15.6503 128.294 14.9713 128.294 14.22C128.294 13.4593 128.42 12.778 128.672 12.176C128.924 11.574 129.293 11.1003 129.778 10.755C130.268 10.405 130.872 10.23 131.591 10.23C132.305 10.23 132.923 10.405 133.446 10.755C133.973 11.1003 134.382 11.574 134.671 12.176C134.96 12.7733 135.105 13.4547 135.105 14.22C135.105 14.976 134.963 15.655 134.678 16.257C134.393 16.859 133.992 17.335 133.474 17.685C132.956 18.035 132.349 18.21 131.654 18.21ZM128.007 21.36V10.44H129.498V15.746H129.708V21.36H128.007ZM131.395 16.698C131.834 16.698 132.195 16.5883 132.48 16.369C132.765 16.1497 132.975 15.8533 133.11 15.48C133.25 15.102 133.32 14.682 133.32 14.22C133.32 13.7627 133.25 13.3473 133.11 12.974C132.97 12.596 132.753 12.2973 132.459 12.078C132.165 11.854 131.792 11.742 131.339 11.742C130.91 11.742 130.56 11.847 130.289 12.057C130.018 12.2623 129.818 12.5517 129.687 12.925C129.561 13.2937 129.498 13.7253 129.498 14.22C129.498 14.71 129.561 15.1417 129.687 15.515C129.818 15.8883 130.021 16.18 130.296 16.39C130.576 16.5953 130.942 16.698 131.395 16.698ZM139.785 18.21C139.02 18.21 138.348 18.0443 137.769 17.713C137.19 17.3817 136.738 16.922 136.411 16.334C136.089 15.746 135.928 15.0693 135.928 14.304C135.928 13.478 136.087 12.7617 136.404 12.155C136.721 11.5437 137.162 11.07 137.727 10.734C138.292 10.398 138.945 10.23 139.687 10.23C140.471 10.23 141.136 10.4143 141.682 10.783C142.233 11.147 142.641 11.6627 142.907 12.33C143.173 12.9973 143.273 13.7837 143.208 14.689H141.535V14.073C141.53 13.2517 141.386 12.652 141.101 12.274C140.816 11.896 140.368 11.707 139.757 11.707C139.066 11.707 138.553 11.9217 138.217 12.351C137.881 12.7757 137.713 13.3987 137.713 14.22C137.713 14.9853 137.881 15.578 138.217 15.998C138.553 16.418 139.043 16.628 139.687 16.628C140.102 16.628 140.459 16.537 140.758 16.355C141.061 16.1683 141.295 15.9 141.458 15.55L143.124 16.054C142.835 16.7353 142.387 17.265 141.78 17.643C141.178 18.021 140.513 18.21 139.785 18.21ZM137.181 14.689V13.415H142.382V14.689H137.181ZM144.456 18V10.44H146.073V16.502H148.208V10.44H149.825V16.502H151.96V10.44H153.577V18H144.456ZM158.667 18.21C157.902 18.21 157.23 18.0443 156.651 17.713C156.073 17.3817 155.62 16.922 155.293 16.334C154.971 15.746 154.81 15.0693 154.81 14.304C154.81 13.478 154.969 12.7617 155.286 12.155C155.604 11.5437 156.045 11.07 156.609 10.734C157.174 10.398 157.827 10.23 158.569 10.23C159.353 10.23 160.018 10.4143 160.564 10.783C161.115 11.147 161.523 11.6627 161.789 12.33C162.055 12.9973 162.156 13.7837 162.09 14.689H160.417V14.073C160.413 13.2517 160.268 12.652 159.983 12.274C159.699 11.896 159.251 11.707 158.639 11.707C157.949 11.707 157.435 11.9217 157.099 12.351C156.763 12.7757 156.595 13.3987 156.595 14.22C156.595 14.9853 156.763 15.578 157.099 15.998C157.435 16.418 157.925 16.628 158.569 16.628C158.985 16.628 159.342 16.537 159.64 16.355C159.944 16.1683 160.177 15.9 160.34 15.55L162.006 16.054C161.717 16.7353 161.269 17.265 160.662 17.643C160.06 18.021 159.395 18.21 158.667 18.21ZM156.063 14.689V13.415H161.264V14.689H156.063ZM163.338 18V10.44H165.025V13.422H168.42V10.44H170.107V18H168.42V15.004H165.025V18H163.338ZM178.313 10.44V18H176.696V13.065L173.098 18H171.747V10.44H173.364V15.249L176.976 10.44H178.313ZM184.501 18V15.48H183.15C182.977 15.48 182.76 15.4753 182.499 15.466C182.242 15.4567 182.002 15.4333 181.778 15.396C181.194 15.2887 180.711 15.0343 180.329 14.633C179.946 14.227 179.755 13.6763 179.755 12.981C179.755 12.2997 179.937 11.7513 180.301 11.336C180.665 10.9207 181.138 10.6547 181.722 10.538C181.964 10.4867 182.214 10.4587 182.471 10.454C182.732 10.4447 182.949 10.44 183.122 10.44H186.188V18H184.501ZM179.559 18L181.365 15.109H183.122L181.33 18H179.559ZM182.975 14.157H184.501V11.763H182.975C182.886 11.763 182.779 11.7677 182.653 11.777C182.527 11.7863 182.401 11.8073 182.275 11.84C182.139 11.882 182.011 11.9543 181.89 12.057C181.768 12.1597 181.668 12.288 181.589 12.442C181.509 12.596 181.47 12.771 181.47 12.967C181.47 13.261 181.554 13.506 181.722 13.702C181.894 13.8933 182.095 14.0217 182.324 14.087C182.436 14.115 182.55 14.1337 182.667 14.143C182.788 14.1523 182.891 14.157 182.975 14.157ZM46.42 33.68V30.677C46.8307 30.677 47.1223 30.537 47.295 30.257C47.4677 29.977 47.6053 29.4917 47.708 28.801C47.7733 28.3903 47.827 27.9563 47.869 27.499C47.911 27.0417 47.946 26.5587 47.974 26.05C48.0067 25.5413 48.0347 25.0047 48.058 24.44H53.686V30.677H54.449V33.68H52.853V32H48.009V33.68H46.42ZM48.681 30.677H52.006V25.763H49.535C49.521 26.043 49.5047 26.33 49.486 26.624C49.4673 26.9133 49.4463 27.2027 49.423 27.492C49.3997 27.7813 49.374 28.059 49.346 28.325C49.3227 28.5863 49.2947 28.829 49.262 29.053C49.2107 29.445 49.1477 29.767 49.073 30.019C48.9983 30.271 48.8677 30.4903 48.681 30.677ZM54.853 32V30.586C55.1284 30.6373 55.3407 30.6327 55.49 30.572C55.6394 30.5067 55.7514 30.3853 55.826 30.208C55.9007 30.0307 55.966 29.795 56.022 29.501C56.0967 29.0857 56.162 28.6073 56.218 28.066C56.2787 27.5247 56.33 26.946 56.372 26.33C56.4187 25.714 56.4607 25.084 56.498 24.44H62.063V32H60.383V26.022H57.982C57.9587 26.3253 57.9307 26.666 57.898 27.044C57.8654 27.4173 57.8304 27.7953 57.793 28.178C57.7557 28.5607 57.7137 28.9247 57.667 29.27C57.625 29.6107 57.5807 29.9023 57.534 30.145C57.4267 30.691 57.2727 31.1227 57.072 31.44C56.876 31.7573 56.6007 31.9603 56.246 32.049C55.8914 32.1423 55.427 32.126 54.853 32ZM68.2516 32V29.48H66.9006C66.7279 29.48 66.5109 29.4753 66.2496 29.466C65.9929 29.4567 65.7526 29.4333 65.5286 29.396C64.9453 29.2887 64.4623 29.0343 64.0796 28.633C63.6969 28.227 63.5056 27.6763 63.5056 26.981C63.5056 26.2997 63.6876 25.7513 64.0516 25.336C64.4156 24.9207 64.8893 24.6547 65.4726 24.538C65.7153 24.4867 65.9649 24.4587 66.2216 24.454C66.4829 24.4447 66.6999 24.44 66.8726 24.44H69.9386V32H68.2516ZM63.3096 32L65.1156 29.109H66.8726L65.0806 32H63.3096ZM66.7256 28.157H68.2516V25.763H66.7256C66.6369 25.763 66.5296 25.7677 66.4036 25.777C66.2776 25.7863 66.1516 25.8073 66.0256 25.84C65.8903 25.882 65.7619 25.9543 65.6406 26.057C65.5193 26.1597 65.4189 26.288 65.3396 26.442C65.2603 26.596 65.2206 26.771 65.2206 26.967C65.2206 27.261 65.3046 27.506 65.4726 27.702C65.6453 27.8933 65.8459 28.0217 66.0746 28.087C66.1866 28.115 66.3009 28.1337 66.4176 28.143C66.5389 28.1523 66.6416 28.157 66.7256 28.157ZM77.3775 32.21C76.5981 32.21 75.9331 32.0373 75.3825 31.692C74.8318 31.342 74.4095 30.866 74.1155 30.264C73.8261 29.662 73.6791 28.9807 73.6745 28.22C73.6791 27.4453 73.8308 26.7593 74.1295 26.162C74.4328 25.56 74.8621 25.0887 75.4175 24.748C75.9728 24.4027 76.6331 24.23 77.3985 24.23C78.2571 24.23 78.9828 24.447 79.5755 24.881C80.1728 25.3103 80.5625 25.8983 80.7445 26.645L79.0645 27.1C78.9338 26.694 78.7168 26.379 78.4135 26.155C78.1101 25.9263 77.7648 25.812 77.3775 25.812C76.9388 25.812 76.5771 25.917 76.2925 26.127C76.0078 26.3323 75.7978 26.617 75.6625 26.981C75.5271 27.345 75.4595 27.758 75.4595 28.22C75.4595 28.9387 75.6205 29.5197 75.9425 29.963C76.2645 30.4063 76.7428 30.628 77.3775 30.628C77.8255 30.628 78.1778 30.5253 78.4345 30.32C78.6958 30.1147 78.8918 29.8183 79.0225 29.431L80.7445 29.816C80.5111 30.586 80.1028 31.1787 79.5195 31.594C78.9361 32.0047 78.2221 32.21 77.3775 32.21ZM83.7032 32V25.938H81.1762V24.44H87.9172V25.938H85.3902V32H83.7032ZM92.5767 32.21C91.8393 32.21 91.221 32.035 90.7217 31.685C90.2223 31.335 89.8467 30.859 89.5947 30.257C89.3427 29.6503 89.2167 28.9713 89.2167 28.22C89.2167 27.4593 89.3427 26.778 89.5947 26.176C89.8467 25.574 90.2153 25.1003 90.7007 24.755C91.1907 24.405 91.795 24.23 92.5137 24.23C93.2277 24.23 93.846 24.405 94.3687 24.755C94.896 25.1003 95.3043 25.574 95.5937 26.176C95.883 26.7733 96.0277 27.4547 96.0277 28.22C96.0277 28.976 95.8853 29.655 95.6007 30.257C95.316 30.859 94.9147 31.335 94.3967 31.685C93.8787 32.035 93.272 32.21 92.5767 32.21ZM88.9297 35.36V24.44H90.4207V29.746H90.6307V35.36H88.9297ZM92.3177 30.698C92.7563 30.698 93.118 30.5883 93.4027 30.369C93.6873 30.1497 93.8973 29.8533 94.0327 29.48C94.1727 29.102 94.2427 28.682 94.2427 28.22C94.2427 27.7627 94.1727 27.3473 94.0327 26.974C93.8927 26.596 93.6757 26.2973 93.3817 26.078C93.0877 25.854 92.7143 25.742 92.2617 25.742C91.8323 25.742 91.4823 25.847 91.2117 26.057C90.941 26.2623 90.7403 26.5517 90.6097 26.925C90.4837 27.2937 90.4207 27.7253 90.4207 28.22C90.4207 28.71 90.4837 29.1417 90.6097 29.515C90.7403 29.8883 90.9433 30.18 91.2187 30.39C91.4987 30.5953 91.865 30.698 92.3177 30.698ZM100.61 32.21C99.8536 32.21 99.1933 32.0397 98.6286 31.699C98.064 31.3583 97.6253 30.8893 97.3126 30.292C97.0046 29.69 96.8506 28.9993 96.8506 28.22C96.8506 27.4267 97.0093 26.7313 97.3266 26.134C97.644 25.5367 98.085 25.07 98.6496 24.734C99.2143 24.398 99.8676 24.23 100.61 24.23C101.37 24.23 102.033 24.4003 102.598 24.741C103.162 25.0817 103.601 25.553 103.914 26.155C104.226 26.7523 104.383 27.4407 104.383 28.22C104.383 29.004 104.224 29.697 103.907 30.299C103.594 30.8963 103.155 31.3653 102.591 31.706C102.026 32.042 101.366 32.21 100.61 32.21ZM100.61 30.628C101.282 30.628 101.781 30.404 102.108 29.956C102.434 29.508 102.598 28.9293 102.598 28.22C102.598 27.4873 102.432 26.904 102.101 26.47C101.769 26.0313 101.272 25.812 100.61 25.812C100.157 25.812 99.7836 25.9147 99.4896 26.12C99.2003 26.3207 98.9856 26.603 98.8456 26.967C98.7056 27.3263 98.6356 27.744 98.6356 28.22C98.6356 28.9527 98.8013 29.5383 99.1326 29.977C99.4686 30.411 99.961 30.628 100.61 30.628ZM112.177 24.44V32H110.56V27.065L106.962 32H105.611V24.44H107.228V29.249L110.84 24.44H112.177ZM115.74 32V25.938H113.213V24.44H119.954V25.938H117.427V32H115.74ZM124.417 32.21C123.652 32.21 122.98 32.0443 122.401 31.713C121.822 31.3817 121.37 30.922 121.043 30.334C120.721 29.746 120.56 29.0693 120.56 28.304C120.56 27.478 120.719 26.7617 121.036 26.155C121.353 25.5437 121.794 25.07 122.359 24.734C122.924 24.398 123.577 24.23 124.319 24.23C125.103 24.23 125.768 24.4143 126.314 24.783C126.865 25.147 127.273 25.6627 127.539 26.33C127.805 26.9973 127.905 27.7837 127.84 28.689H126.167V28.073C126.162 27.2517 126.018 26.652 125.733 26.274C125.448 25.896 125 25.707 124.389 25.707C123.698 25.707 123.185 25.9217 122.849 26.351C122.513 26.7757 122.345 27.3987 122.345 28.22C122.345 28.9853 122.513 29.578 122.849 29.998C123.185 30.418 123.675 30.628 124.319 30.628C124.734 30.628 125.091 30.537 125.39 30.355C125.693 30.1683 125.927 29.9 126.09 29.55L127.756 30.054C127.467 30.7353 127.019 31.265 126.412 31.643C125.81 32.021 125.145 32.21 124.417 32.21ZM121.813 28.689V27.415H127.014V28.689H121.813ZM128.402 32V30.586C128.677 30.6373 128.89 30.6327 129.039 30.572C129.188 30.5067 129.3 30.3853 129.375 30.208C129.45 30.0307 129.515 29.795 129.571 29.501C129.646 29.0857 129.711 28.6073 129.767 28.066C129.828 27.5247 129.879 26.946 129.921 26.33C129.968 25.714 130.01 25.084 130.047 24.44H135.612V32H133.932V26.022H131.531C131.508 26.3253 131.48 26.666 131.447 27.044C131.414 27.4173 131.379 27.7953 131.342 28.178C131.305 28.5607 131.263 28.9247 131.216 29.27C131.174 29.6107 131.13 29.9023 131.083 30.145C130.976 30.691 130.822 31.1227 130.621 31.44C130.425 31.7573 130.15 31.9603 129.795 32.049C129.44 32.1423 128.976 32.126 128.402 32ZM137.271 32L137.264 24.44H138.951V26.96H140.309C140.519 26.96 140.755 26.9647 141.016 26.974C141.282 26.9833 141.504 27.0043 141.681 27.037C142.106 27.1303 142.468 27.2797 142.766 27.485C143.07 27.6903 143.301 27.9587 143.459 28.29C143.618 28.6213 143.697 29.0203 143.697 29.487C143.697 30.1543 143.525 30.6887 143.179 31.09C142.839 31.4867 142.358 31.7573 141.737 31.902C141.551 31.944 141.322 31.972 141.051 31.986C140.785 31.9953 140.545 32 140.33 32H137.271ZM138.951 30.677H140.477C140.58 30.677 140.694 30.6723 140.82 30.663C140.946 30.6537 141.068 30.6327 141.184 30.6C141.394 30.544 141.579 30.418 141.737 30.222C141.901 30.0213 141.982 29.7763 141.982 29.487C141.982 29.1837 141.901 28.934 141.737 28.738C141.574 28.542 141.373 28.4137 141.135 28.353C141.028 28.325 140.916 28.3063 140.799 28.297C140.683 28.2877 140.575 28.283 140.477 28.283H138.951V30.677ZM148.218 32.21C147.439 32.21 146.774 32.0373 146.223 31.692C145.673 31.342 145.25 30.866 144.956 30.264C144.667 29.662 144.52 28.9807 144.515 28.22C144.52 27.4453 144.672 26.7593 144.97 26.162C145.274 25.56 145.703 25.0887 146.258 24.748C146.814 24.4027 147.474 24.23 148.239 24.23C149.098 24.23 149.824 24.447 150.416 24.881C151.014 25.3103 151.403 25.8983 151.585 26.645L149.905 27.1C149.775 26.694 149.558 26.379 149.254 26.155C148.951 25.9263 148.606 25.812 148.218 25.812C147.78 25.812 147.418 25.917 147.133 26.127C146.849 26.3323 146.639 26.617 146.503 26.981C146.368 27.345 146.3 27.758 146.3 28.22C146.3 28.9387 146.461 29.5197 146.783 29.963C147.105 30.4063 147.584 30.628 148.218 30.628C148.666 30.628 149.019 30.5253 149.275 30.32C149.537 30.1147 149.733 29.8183 149.863 29.431L151.585 29.816C151.352 30.586 150.944 31.1787 150.36 31.594C149.777 32.0047 149.063 32.21 148.218 32.21ZM154.544 32V25.938H152.017V24.44H158.758V25.938H156.231V32H154.544ZM159.771 32V24.44H163.208C163.455 24.44 163.686 24.454 163.901 24.482C164.115 24.51 164.3 24.545 164.454 24.587C164.818 24.6943 165.14 24.9043 165.42 25.217C165.7 25.525 165.84 25.952 165.84 26.498C165.84 26.82 165.788 27.086 165.686 27.296C165.583 27.5013 165.448 27.674 165.28 27.814C165.2 27.8793 165.119 27.9353 165.035 27.982C164.951 28.0287 164.867 28.066 164.783 28.094C164.965 28.122 165.137 28.1757 165.301 28.255C165.557 28.381 165.772 28.5677 165.945 28.815C166.122 29.0623 166.211 29.41 166.211 29.858C166.211 30.3667 166.087 30.796 165.84 31.146C165.597 31.4913 165.24 31.7317 164.769 31.867C164.596 31.9137 164.398 31.9487 164.174 31.972C163.95 31.9907 163.721 32 163.488 32H159.771ZM161.479 30.698H163.369C163.467 30.698 163.574 30.6887 163.691 30.67C163.807 30.6513 163.912 30.6257 164.006 30.593C164.174 30.5323 164.295 30.425 164.37 30.271C164.449 30.117 164.489 29.956 164.489 29.788C164.489 29.5593 164.43 29.3773 164.314 29.242C164.202 29.102 164.066 29.0087 163.908 28.962C163.814 28.9247 163.712 28.9037 163.6 28.899C163.492 28.8897 163.404 28.885 163.334 28.885H161.479V30.698ZM161.479 27.562H162.879C163.023 27.562 163.163 27.555 163.299 27.541C163.439 27.5223 163.555 27.492 163.649 27.45C163.803 27.3893 163.915 27.2867 163.985 27.142C164.059 26.9973 164.097 26.8363 164.097 26.659C164.097 26.4723 164.055 26.3043 163.971 26.155C163.891 26.001 163.763 25.8983 163.586 25.847C163.469 25.8003 163.327 25.7747 163.159 25.77C162.995 25.7653 162.89 25.763 162.844 25.763H161.479V27.562ZM169.419 32.21C168.873 32.21 168.411 32.1073 168.033 31.902C167.655 31.692 167.368 31.4143 167.172 31.069C166.981 30.7237 166.885 30.3433 166.885 29.928C166.885 29.564 166.946 29.2373 167.067 28.948C167.188 28.654 167.375 28.402 167.627 28.192C167.879 27.9773 168.206 27.8023 168.607 27.667C168.91 27.569 169.265 27.4803 169.671 27.401C170.082 27.3217 170.525 27.2493 171.001 27.184C171.482 27.114 171.983 27.0393 172.506 26.96L171.904 27.303C171.909 26.7803 171.792 26.3953 171.554 26.148C171.316 25.9007 170.915 25.777 170.35 25.777C170.009 25.777 169.68 25.8563 169.363 26.015C169.046 26.1737 168.824 26.4467 168.698 26.834L167.158 26.351C167.345 25.7117 167.699 25.1983 168.222 24.811C168.749 24.4237 169.459 24.23 170.35 24.23C171.022 24.23 171.612 24.3397 172.121 24.559C172.634 24.7783 173.015 25.1377 173.262 25.637C173.397 25.903 173.479 26.176 173.507 26.456C173.535 26.7313 173.549 27.0323 173.549 27.359V32H172.072V30.362L172.317 30.628C171.976 31.174 171.577 31.5753 171.12 31.832C170.667 32.084 170.1 32.21 169.419 32.21ZM169.755 30.866C170.138 30.866 170.464 30.7983 170.735 30.663C171.006 30.5277 171.22 30.362 171.379 30.166C171.542 29.97 171.652 29.7857 171.708 29.613C171.797 29.3983 171.846 29.1533 171.855 28.878C171.869 28.598 171.876 28.3717 171.876 28.199L172.394 28.353C171.885 28.4323 171.449 28.5023 171.085 28.563C170.721 28.6237 170.408 28.682 170.147 28.738C169.886 28.7893 169.655 28.8477 169.454 28.913C169.258 28.983 169.092 29.0647 168.957 29.158C168.822 29.2513 168.717 29.3587 168.642 29.48C168.572 29.6013 168.537 29.7437 168.537 29.907C168.537 30.0937 168.584 30.2593 168.677 30.404C168.77 30.544 168.906 30.656 169.083 30.74C169.265 30.824 169.489 30.866 169.755 30.866Z" fill="black" fill-opacity="0.56"/>
<defs>
<filter id="filter0_b_1256_20846" x="-5" y="-5" width="48.7256" height="50" filterUnits="userSpaceOnUse" color-interpolation-filters="sRGB">
<feFlood flood-opacity="0" result="BackgroundImageFix"/>
<feGaussianBlur in="BackgroundImage" stdDeviation="5"/>
<feComposite in2="SourceAlpha" operator="in" result="effect1_backgroundBlur_1256_20846"/>
<feBlend mode="normal" in="SourceGraphic" in2="effect1_backgroundBlur_1256_20846" result="shape"/>
</filter>
<filter id="filter1_bd_1256_20846" x="10.2861" y="0" width="29.7139" height="40" filterUnits="userSpaceOnUse" color-interpolation-filters="sRGB">
<feFlood flood-opacity="0" result="BackgroundImageFix"/>
<feGaussianBlur in="BackgroundImage" stdDeviation="2.5"/>
<feComposite in2="SourceAlpha" operator="in" result="effect1_backgroundBlur_1256_20846"/>
<feColorMatrix in="SourceAlpha" type="matrix" values="0 0 0 0 0 0 0 0 0 0 0 0 0 0 0 0 0 0 127 0" result="hardAlpha"/>
<feOffset dy="1"/>
<feGaussianBlur stdDeviation="1"/>
<feComposite in2="hardAlpha" operator="out"/>
<feColorMatrix type="matrix" values="0 0 0 0 0 0 0 0 0 0 0 0 0 0 0 0 0 0 0.08 0"/>
<feBlend mode="normal" in2="effect1_backgroundBlur_1256_20846" result="effect2_dropShadow_1256_20846"/>
<feBlend mode="normal" in="SourceGraphic" in2="effect2_dropShadow_1256_20846" result="shape"/>
</filter>
<linearGradient id="paint0_linear_1256_20846" x1="5" y1="5" x2="34.9717" y2="33.6984" gradientUnits="userSpaceOnUse">
<stop stop-color="#F4B02C"/>
<stop offset="1" stop-color="#F47E2C"/>
</linearGradient>
<linearGradient id="paint1_linear_1256_20846" x1="23.7503" y1="5" x2="35.0003" y2="35" gradientUnits="userSpaceOnUse">
<stop stop-color="#F2F1ED"/>
<stop offset="1" stop-color="#BFBEBB"/>
</linearGradient>
</defs>
</svg>
