<svg width="24" height="24" viewBox="0 0 24 24" fill="none" xmlns="http://www.w3.org/2000/svg">
<path opacity="0.1" d="M4.00459 12.7594C3.99988 12.3787 4.00433 11.5722 4.00681 11.1982C4.00753 11.0883 4.0968 11 4.20665 11H19.7934C19.9032 11 19.9925 11.0884 19.9932 11.1982C19.9957 11.5719 20.0001 12.3772 19.9954 12.7562C19.9751 14.4109 19.9574 15.4326 19.8345 16.1928C19.7262 16.8626 19.5666 17.1146 19.3774 17.3055C19.1994 17.4852 18.9452 17.6537 18.2323 17.7725C17.4373 17.9049 16.3649 17.9331 14.6506 17.9704C12.8476 18.0096 11.1413 18.0099 9.34567 17.9712C7.63273 17.9343 6.56151 17.9065 5.76734 17.7742C5.05546 17.6557 4.80129 17.4874 4.62294 17.3074C4.43363 17.1164 4.27405 16.8644 4.16576 16.195C4.04283 15.435 4.02506 14.4137 4.00459 12.7594Z" fill="black" fill-opacity="0.56"/>
<path fill-rule="evenodd" clip-rule="evenodd" d="M3.20507 5.28393C2.06679 6.43206 2.04625 8.0284 2.00515 11.2211C1.99842 11.7437 1.99829 12.2623 2.00474 12.7842C2.0442 15.9723 2.06393 17.5663 3.20227 18.7151C4.34062 19.8639 5.99462 19.8995 9.30263 19.9708C11.1272 20.01 12.8624 20.0097 14.6941 19.9699C18.0049 19.8979 19.6603 19.8619 20.7983 18.713C21.9364 17.5642 21.956 15.9698 21.9953 12.7808C22.0017 12.2612 22.0016 11.7448 21.9949 11.2244C21.954 8.0309 21.9335 6.43416 20.7955 5.28602C19.6575 4.13788 18.0013 4.10191 14.6889 4.02999C12.8608 3.99029 11.1288 3.99001 9.30781 4.02913C5.99817 4.10025 4.34335 4.13581 3.20507 5.28393ZM4.00459 12.7594C3.99988 12.3787 4.00433 11.5722 4.00681 11.1982C4.00753 11.0883 4.0968 11 4.20665 11H19.7934C19.9032 11 19.9925 11.0884 19.9932 11.1982C19.9957 11.5719 20.0001 12.3772 19.9954 12.7562C19.9751 14.4109 19.9574 15.4326 19.8345 16.1928C19.7262 16.8626 19.5666 17.1146 19.3774 17.3055C19.1994 17.4852 18.9452 17.6537 18.2323 17.7725C17.4373 17.9049 16.3649 17.9331 14.6506 17.9704C12.8476 18.0096 11.1413 18.0099 9.34567 17.9712C7.63273 17.9343 6.56151 17.9065 5.76734 17.7742C5.05546 17.6557 4.80129 17.4874 4.62294 17.3074C4.43363 17.1164 4.27405 16.8644 4.16576 16.195C4.04283 15.435 4.02506 14.4137 4.00459 12.7594ZM14.6455 6.02952C12.8461 5.99044 11.1428 5.99017 9.35077 6.02867C7.63706 6.0655 6.56507 6.09336 5.77034 6.22555C5.05768 6.34409 4.80345 6.51241 4.62536 6.69204C4.4366 6.88244 4.27667 7.13442 4.16793 7.80564C4.12175 8.09067 4.0903 8.41241 4.0679 8.79035C4.06114 8.90441 4.15232 9 4.26658 9H19.7334C19.8477 9 19.9389 8.90441 19.9321 8.79035C19.9097 8.41337 19.8784 8.09231 19.8323 7.80782C19.7236 7.13623 19.5636 6.88421 19.375 6.69393C19.1973 6.51459 18.943 6.34607 18.2293 6.22728C17.4337 6.09488 16.3606 6.06676 14.6455 6.02952Z" fill="black" fill-opacity="0.56"/>
<path d="M6 14.5C6 14.2239 6.22386 14 6.5 14H9.5C9.77614 14 10 14.2239 10 14.5V15.5C10 15.7761 9.77614 16 9.5 16H6.5C6.22386 16 6 15.7761 6 15.5V14.5Z" fill="black" fill-opacity="0.56"/>
</svg>
