<svg width="24" height="24" viewBox="0 0 24 24" fill="none" xmlns="http://www.w3.org/2000/svg">
<path opacity="0.1" d="M9.39985 15.0815C11.3174 14.9728 12.6826 14.9728 14.6002 15.0815C16.2234 15.1735 17.5 16.5483 17.5 18.213C17.5 18.7804 17.0631 19.2498 16.5038 19.2913C12.7543 19.5696 11.2457 19.5696 7.49624 19.2913C6.93691 19.2498 6.5 18.7804 6.5 18.213C6.5 16.5483 7.77665 15.1735 9.39985 15.0815Z" fill="white"/>
<path fill-rule="evenodd" clip-rule="evenodd" d="M12 5C10.6193 5 9.5 6.11929 9.5 7.5C9.5 8.88071 10.6193 10 12 10C13.3807 10 14.5 8.88071 14.5 7.5C14.5 6.11929 13.3807 5 12 5ZM7.5 7.5C7.5 5.01472 9.51472 3 12 3C14.4853 3 16.5 5.01472 16.5 7.5C16.5 9.98528 14.4853 12 12 12C9.51472 12 7.5 9.98528 7.5 7.5ZM9.28667 13.0847C11.2796 12.9718 12.7204 12.9718 14.7133 13.0847C17.434 13.2389 19.5 15.5268 19.5 18.213C19.5 19.821 18.2619 21.1663 16.6518 21.2858C12.8038 21.5714 11.1962 21.5714 7.3482 21.2858C5.73807 21.1663 4.5 19.821 4.5 18.213C4.5 15.5268 6.56601 13.2389 9.28667 13.0847ZM14.6002 15.0815C12.6826 14.9728 11.3174 14.9728 9.39985 15.0815C7.77665 15.1735 6.5 16.5483 6.5 18.213C6.5 18.7804 6.93691 19.2498 7.49624 19.2913C11.2457 19.5696 12.7543 19.5696 16.5038 19.2913C17.0631 19.2498 17.5 18.7804 17.5 18.213C17.5 16.5483 16.2234 15.1735 14.6002 15.0815Z" fill="white"/>
</svg>
