<svg width="25" height="24" viewBox="0 0 25 24" fill="none" xmlns="http://www.w3.org/2000/svg">
<path opacity="0.1" d="M10.0659 15.0815C11.9834 14.9728 13.3487 14.9728 15.2662 15.0815C16.8894 15.1735 18.166 16.5483 18.166 18.213C18.166 18.7804 17.7291 19.2498 17.1698 19.2913C13.4203 19.5696 11.9117 19.5696 8.16226 19.2913C7.60293 19.2498 7.16602 18.7804 7.16602 18.213C7.16602 16.5483 8.44266 15.1735 10.0659 15.0815Z" fill="black" fill-opacity="0.56"/>
<path fill-rule="evenodd" clip-rule="evenodd" d="M12.666 5C11.2853 5 10.166 6.11929 10.166 7.5C10.166 8.88071 11.2853 10 12.666 10C14.0467 10 15.166 8.88071 15.166 7.5C15.166 6.11929 14.0467 5 12.666 5ZM8.16602 7.5C8.16602 5.01472 10.1807 3 12.666 3C15.1513 3 17.166 5.01472 17.166 7.5C17.166 9.98528 15.1513 12 12.666 12C10.1807 12 8.16602 9.98528 8.16602 7.5ZM9.95269 13.0847C11.9456 12.9718 13.3865 12.9718 15.3793 13.0847C18.1 13.2389 20.166 15.5268 20.166 18.213C20.166 19.821 18.9279 21.1663 17.3178 21.2858C13.4698 21.5714 11.8623 21.5714 8.01421 21.2858C6.40409 21.1663 5.16602 19.821 5.16602 18.213C5.16602 15.5268 7.23202 13.2389 9.95269 13.0847ZM15.2662 15.0815C13.3487 14.9728 11.9834 14.9728 10.0659 15.0815C8.44266 15.1735 7.16602 16.5483 7.16602 18.213C7.16602 18.7804 7.60293 19.2498 8.16226 19.2913C11.9117 19.5696 13.4203 19.5696 17.1698 19.2913C17.7291 19.2498 18.166 18.7804 18.166 18.213C18.166 16.5483 16.8894 15.1735 15.2662 15.0815Z" fill="black" fill-opacity="0.56"/>
</svg>
