<svg width="25" height="24" viewBox="0 0 25 24" fill="none" xmlns="http://www.w3.org/2000/svg">
<path opacity="0.1" fill-rule="evenodd" clip-rule="evenodd" d="M18.3043 9.35077C18.3428 11.1428 18.3426 12.8461 18.3035 14.6455C18.2739 16.0065 18.1565 17.5231 18.1092 18.0913C18.0991 18.2136 17.9821 18.2974 17.8615 18.2747C17.373 18.1827 16.2262 18.0288 15.6981 18.4815L15.3171 18.808C14.9426 19.129 14.39 19.129 14.0155 18.808L13.6346 18.4815C12.8856 17.8395 11.7804 17.8395 11.0314 18.4815L10.6505 18.808C10.276 19.129 9.72337 19.129 9.34888 18.808L8.96792 18.4815C8.36675 17.9662 7.53607 17.8645 6.84432 18.1764C6.71287 18.2357 6.55051 18.1637 6.53236 18.0206C6.43344 17.241 6.39545 16.1593 6.36263 14.6506C6.32341 12.8476 6.32314 11.1413 6.36179 9.34567C6.39866 7.63273 6.42656 6.56151 6.5588 5.76734C6.67734 5.05546 6.84561 4.80129 7.0256 4.62294C7.21666 4.43363 7.46857 4.27405 8.13799 4.16576C8.89797 4.04283 9.91932 4.02506 11.5736 4.00459C12.0786 3.99834 12.5804 3.99847 13.0862 4.00498C14.7427 4.02631 15.766 4.04458 16.5274 4.16793C17.1986 4.27667 17.4506 4.4366 17.641 4.62536C17.8206 4.80345 17.9889 5.05768 18.1075 5.77034C18.2397 6.56507 18.2675 7.63706 18.3043 9.35077ZM13.3127 10.3797C13.9109 10.5484 14.3569 10.7729 14.6527 11.09C14.9525 11.4114 15.083 11.8115 15.083 12.2987C15.083 13.3844 14.3202 14.1762 13.1744 14.4159V15.05C13.1744 15.1605 13.0849 15.25 12.9744 15.25H11.8131C11.7027 15.25 11.6131 15.1605 11.6131 15.05V14.4047C10.524 14.155 9.76929 13.3727 9.60467 12.2663C9.5927 12.1859 9.64813 12.1109 9.72856 12.0988L10.9821 11.91C11.0597 11.8984 11.1333 11.9482 11.1513 12.0246C11.3017 12.6633 11.8122 13.0603 12.4767 13.0603C12.7966 13.0603 13.0662 12.9775 13.2514 12.851C13.4356 12.7251 13.5309 12.5614 13.5309 12.3879C13.5309 12.2651 13.4944 12.1756 13.4226 12.1013C13.3463 12.0225 13.2198 11.9501 13.0203 11.8871L11.3805 11.3966C10.8945 11.2521 10.5103 11.0268 10.2477 10.7173C9.98376 10.4063 9.85205 10.0213 9.85205 9.57639C9.85205 9.03876 10.031 8.57668 10.3632 8.22576C10.6694 7.90241 11.0974 7.68207 11.6131 7.57842V6.95C11.6131 6.83954 11.7027 6.75 11.8131 6.75H12.9744C13.0849 6.75 13.1744 6.83954 13.1744 6.95V7.6115C14.1241 7.85209 14.7717 8.51356 15.0322 9.50399C15.0541 9.58737 14.9999 9.67163 14.915 9.68631L13.6151 9.91101C13.536 9.92469 13.46 9.87396 13.4423 9.79562C13.3291 9.29473 12.9036 8.95563 12.334 8.93965C12.0575 8.93154 11.8186 9.00091 11.6534 9.11097C11.4888 9.22061 11.4041 9.36411 11.4041 9.51391C11.4041 9.62254 11.4456 9.71376 11.5523 9.80063C11.6659 9.8932 11.8533 9.97982 12.1403 10.058L13.3127 10.3797Z" fill="black" fill-opacity="0.56"/>
<path fill-rule="evenodd" clip-rule="evenodd" d="M13.1119 2.00515C16.3046 2.04625 17.901 2.06679 19.0491 3.20507C20.1972 4.34335 20.2328 5.99817 20.3039 9.30781C20.343 11.1288 20.3427 12.8608 20.303 14.6889C20.2311 18.0013 20.1951 19.6575 19.047 20.7955C19.0437 20.7987 19.0405 20.802 19.0372 20.8052C18.7271 21.1101 18.2406 21.0636 17.9103 20.7806L17.6505 20.5578C17.276 20.2368 16.7234 20.2368 16.3489 20.5578L15.9679 20.8844C15.2189 21.5263 14.1137 21.5263 13.3648 20.8844L12.9838 20.5578C12.6093 20.2368 12.0567 20.2368 11.6822 20.5578L11.3013 20.8844C10.5523 21.5263 9.44707 21.5263 8.69809 20.8844L8.31713 20.5578C7.94264 20.2368 7.39004 20.2368 7.01555 20.5578L6.75476 20.7814C6.42428 21.0646 5.93734 21.1109 5.62723 20.8055C5.6248 20.8031 5.62238 20.8007 5.61996 20.7983C4.47114 19.6603 4.43513 18.0049 4.36311 14.6941C4.32326 12.8624 4.32298 11.1272 4.36225 9.30263C4.43346 5.99462 4.46907 4.34062 5.61787 3.20227C6.76668 2.06393 8.36073 2.0442 11.5488 2.00474C12.0707 1.99829 12.5893 1.99842 13.1119 2.00515ZM18.3035 14.6455C18.3426 12.8461 18.3428 11.1428 18.3043 9.35077C18.2675 7.63706 18.2397 6.56507 18.1075 5.77034C17.9889 5.05768 17.8206 4.80345 17.641 4.62536C17.4506 4.4366 17.1986 4.27667 16.5274 4.16793C15.766 4.04458 14.7427 4.02631 13.0862 4.00498C12.5804 3.99847 12.0786 3.99834 11.5736 4.00459C9.91932 4.02506 8.89797 4.04283 8.13799 4.16576C7.46857 4.27405 7.21666 4.43363 7.0256 4.62294C6.84561 4.80129 6.67734 5.05546 6.5588 5.76734C6.42656 6.56151 6.39866 7.63273 6.36179 9.34567C6.32314 11.1413 6.32341 12.8476 6.36263 14.6506C6.39545 16.1593 6.43344 17.241 6.53236 18.0206C6.55051 18.1637 6.71287 18.2357 6.84432 18.1764C7.53607 17.8645 8.36675 17.9662 8.96792 18.4815L9.34888 18.808C9.72337 19.129 10.276 19.129 10.6505 18.808L11.0314 18.4815C11.7804 17.8395 12.8856 17.8395 13.6346 18.4815L14.0155 18.808C14.39 19.129 14.9426 19.129 15.3171 18.808L15.6981 18.4815C16.2262 18.0288 17.373 18.1827 17.8615 18.2747C17.9821 18.2974 18.0991 18.2136 18.1092 18.0913C18.1565 17.5231 18.2739 16.0065 18.3035 14.6455Z" fill="black" fill-opacity="0.56"/>
<path d="M14.6527 11.09C14.3569 10.7729 13.9109 10.5484 13.3127 10.3797L12.1403 10.058C11.8533 9.97982 11.6659 9.8932 11.5523 9.80063C11.4456 9.71376 11.4041 9.62254 11.4041 9.51391C11.4041 9.36411 11.4888 9.22061 11.6534 9.11097C11.8186 9.00091 12.0575 8.93154 12.334 8.93965C12.9036 8.95563 13.3291 9.29473 13.4423 9.79562C13.46 9.87396 13.536 9.92469 13.6151 9.91101L14.915 9.68631C14.9999 9.67163 15.0541 9.58737 15.0322 9.50399C14.7717 8.51356 14.1241 7.85209 13.1744 7.6115V6.95C13.1744 6.83954 13.0849 6.75 12.9744 6.75H11.8131C11.7027 6.75 11.6131 6.83954 11.6131 6.95V7.57842C11.0974 7.68207 10.6694 7.90241 10.3632 8.22576C10.031 8.57668 9.85205 9.03876 9.85205 9.57639C9.85205 10.0213 9.98376 10.4063 10.2477 10.7173C10.5103 11.0268 10.8945 11.2521 11.3805 11.3966L13.0203 11.8871C13.2198 11.9501 13.3463 12.0225 13.4226 12.1013C13.4944 12.1756 13.5309 12.2651 13.5309 12.3879C13.5309 12.5614 13.4356 12.7251 13.2514 12.851C13.0662 12.9775 12.7966 13.0603 12.4767 13.0603C11.8122 13.0603 11.3017 12.6633 11.1513 12.0246C11.1333 11.9482 11.0597 11.8984 10.9821 11.91L9.72856 12.0988C9.64813 12.1109 9.5927 12.1859 9.60467 12.2663C9.76929 13.3727 10.524 14.155 11.6131 14.4047V15.05C11.6131 15.1605 11.7027 15.25 11.8131 15.25H12.9744C13.0849 15.25 13.1744 15.1605 13.1744 15.05V14.4159C14.3202 14.1762 15.083 13.3844 15.083 12.2987C15.083 11.8115 14.9525 11.4114 14.6527 11.09Z" fill="black" fill-opacity="0.56"/>
</svg>
