<svg width="23.999999999999996" height="23.999999999999996" xmlns="http://www.w3.org/2000/svg">

 <g>
  <title>background</title>
  <rect fill="none" id="canvas_background" height="402" width="582" y="-1" x="-1"/>
 </g>
 <g>
  <title>Layer 1</title>
  <path id="svg_1" fill-opacity="0.56" fill="black" d="m4.00459,12.7594c-0.00471,-0.3807 -0.00026,-1.1872 0.00222,-1.5612c0.00072,-0.1099 0.08999,-0.1982 0.19984,-0.1982l15.58675,0c0.1098,0 0.1991,0.0884 0.1998,0.1982c0.0025,0.3737 0.0069,1.179 0.0022,1.558c-0.0203,1.6547 -0.038,2.6764 -0.1609,3.4366c-0.1083,0.6698 -0.2679,0.9218 -0.4571,1.1127c-0.178,0.1797 -0.4322,0.3482 -1.1451,0.467c-0.795,0.1324 -1.8674,0.1606 -3.5817,0.1979c-1.803,0.0392 -3.5093,0.0395 -5.30493,0.0008c-1.71294,-0.0369 -2.78416,-0.0647 -3.57833,-0.197c-0.71188,-0.1185 -0.96605,-0.2868 -1.1444,-0.4668c-0.18931,-0.191 -0.34889,-0.443 -0.45718,-1.1124c-0.12293,-0.76 -0.1407,-1.7813 -0.16117,-3.4356z" opacity="0.1"/>
  <path id="svg_2" fill="#ffffff" d="m3.20507,5.28393c-1.13828,1.14813 -1.15882,2.74447 -1.19992,5.93717c-0.00673,0.5226 -0.00686,1.0412 -0.00041,1.5631c0.03946,3.1881 0.05919,4.7821 1.19753,5.9309c1.13835,1.1488 2.79235,1.1844 6.10036,1.2557c1.82457,0.0392 3.55977,0.0389 5.39147,-0.0009c3.3108,-0.072 4.9662,-0.108 6.1042,-1.2569c1.1381,-1.1488 1.1577,-2.7432 1.197,-5.9322c0.0064,-0.5196 0.0063,-1.036 -0.0004,-1.5564c-0.0409,-3.1935 -0.0614,-4.79024 -1.1994,-5.93838c-1.138,-1.14814 -2.7942,-1.18411 -6.1066,-1.25603c-1.8281,-0.0397 -3.5601,-0.03998 -5.38109,-0.00086c-3.30964,0.07112 -4.96446,0.10668 -6.10274,1.2548zm0.79952,7.47547c-0.00471,-0.3807 -0.00026,-1.1872 0.00222,-1.5612c0.00072,-0.1099 0.08999,-0.1982 0.19984,-0.1982l15.58675,0c0.1098,0 0.1991,0.0884 0.1998,0.1982c0.0025,0.3737 0.0069,1.179 0.0022,1.558c-0.0203,1.6547 -0.038,2.6764 -0.1609,3.4366c-0.1083,0.6698 -0.2679,0.9218 -0.4571,1.1127c-0.178,0.1797 -0.4322,0.3482 -1.1451,0.467c-0.795,0.1324 -1.8674,0.1606 -3.5817,0.1979c-1.803,0.0392 -3.5093,0.0395 -5.30493,0.0008c-1.71294,-0.0369 -2.78416,-0.0647 -3.57833,-0.197c-0.71188,-0.1185 -0.96605,-0.2868 -1.1444,-0.4668c-0.18931,-0.191 -0.34889,-0.443 -0.45718,-1.1124c-0.12293,-0.76 -0.1407,-1.7813 -0.16117,-3.4356zm10.64091,-6.72988c-1.7994,-0.03908 -3.5027,-0.03935 -5.29473,-0.00085c-1.71371,0.03683 -2.7857,0.06469 -3.58043,0.19688c-0.71266,0.11854 -0.96689,0.28686 -1.14498,0.46649c-0.18876,0.1904 -0.34869,0.44238 -0.45743,1.1136c-0.04618,0.28503 -0.07763,0.60677 -0.10003,0.98471c-0.00676,0.11406 0.08442,0.20965 0.19868,0.20965l15.46682,0c0.1143,0 0.2055,-0.09559 0.1987,-0.20965c-0.0224,-0.37698 -0.0537,-0.69804 -0.0998,-0.98253c-0.1087,-0.67159 -0.2687,-0.92361 -0.4573,-1.11389c-0.1777,-0.17934 -0.432,-0.34786 -1.1457,-0.46665c-0.7956,-0.1324 -1.8687,-0.16052 -3.5838,-0.19776z" clip-rule="evenodd" fill-rule="evenodd"/>
  <path id="svg_3" fill="#ffffff" d="m6,14.5c0,-0.2761 0.22386,-0.5 0.5,-0.5l3,0c0.27614,0 0.5,0.2239 0.5,0.5l0,1c0,0.2761 -0.22386,0.5 -0.5,0.5l-3,0c-0.27614,0 -0.5,-0.2239 -0.5,-0.5l0,-1z"/>
 </g>
</svg>