<svg width="24" height="24" viewBox="0 0 24 24" fill="none" xmlns="http://www.w3.org/2000/svg">
<path opacity="0.1" d="M7.22555 18.2297C7.09336 17.4349 7.0655 16.3629 7.02867 14.6492C7.01672 14.0928 7.0085 13.5449 7.00402 13L12.5858 13L10.7929 14.7929C10.4024 15.1834 10.4024 15.8166 10.7929 16.2071C11.1834 16.5976 11.8166 16.5976 12.2071 16.2071L16.4142 12L12.2071 7.79289C11.8166 7.40237 11.1834 7.40237 10.7929 7.79289C10.4024 8.18342 10.4024 8.81658 10.7929 9.20711L12.5858 11L7.00441 11C7.00908 10.457 7.01745 9.91035 7.02952 9.35448C7.06676 7.63943 7.09488 6.56626 7.22728 5.77072C7.34607 5.057 7.51459 4.80273 7.69393 4.62497C7.88421 4.43638 8.13623 4.27643 8.80782 4.1677C9.56945 4.0444 10.5932 4.02618 12.25 4.00494C12.7537 3.99848 13.2534 3.99836 13.7562 4.00455C15.4109 4.02494 16.4326 4.04265 17.1928 4.16554C17.8626 4.2738 18.1146 4.43341 18.3055 4.62255C18.4852 4.80057 18.6537 5.05478 18.7725 5.76771C18.9049 6.56269 18.9331 7.63509 18.9704 9.34937C19.0096 11.1524 19.0099 12.8587 18.9712 14.6543C18.9343 16.3673 18.9065 17.4385 18.7742 18.2327C18.6557 18.9445 18.4874 19.1987 18.3074 19.3771C18.1164 19.5664 17.8644 19.726 17.195 19.8342C16.435 19.9572 15.4137 19.9749 13.7594 19.9954C13.2544 20.0017 12.7526 20.0015 12.2468 19.995C10.5903 19.9737 9.56699 19.9554 8.80564 19.8321C8.13442 19.7233 7.88244 19.5634 7.69204 19.3746C7.51241 19.1965 7.34409 18.9423 7.22555 18.2297Z" fill="black" fill-opacity="0.56"/>
<path fill-rule="evenodd" clip-rule="evenodd" d="M11.2211 21.9949C8.0284 21.9538 6.43206 21.9332 5.28393 20.7949C4.13581 19.6566 4.10025 18.0018 4.02913 14.6922C4.01687 14.1213 4.00847 13.5591 4.00395 13L2 13C1.44771 13 1 12.5523 1 12C1 11.4477 1.44771 11 2 11L4.00434 11C4.00905 10.4426 4.0176 9.88152 4.02999 9.31106C4.10191 5.99866 4.13788 4.34246 5.28602 3.20449C6.43416 2.06651 8.03091 2.04604 11.2244 2.00511C11.7448 1.99843 12.2612 1.9983 12.7808 2.0047C15.9698 2.044 17.5642 2.06365 18.713 3.20169C19.8619 4.33973 19.8979 5.99511 19.9699 9.30588C20.0097 11.1376 20.01 12.8728 19.9708 14.6974C19.8995 18.0054 19.8639 19.6594 18.7151 20.7977C17.5663 21.9361 15.9723 21.9558 12.7842 21.9953C12.2623 22.0017 11.7437 22.0016 11.2211 21.9949ZM6.02867 14.6492C6.0655 16.3629 6.09336 17.4349 6.22555 18.2297C6.34409 18.9423 6.51241 19.1965 6.69204 19.3746C6.88244 19.5634 7.13442 19.7233 7.80564 19.8321C8.56699 19.9554 9.59035 19.9737 11.2468 19.995C11.7526 20.0015 12.2544 20.0017 12.7594 19.9954C14.4137 19.9749 15.435 19.9572 16.195 19.8342C16.8644 19.726 17.1164 19.5664 17.3074 19.3771C17.4874 19.1987 17.6557 18.9445 17.7742 18.2327C17.9065 17.4385 17.9343 16.3673 17.9712 14.6543C18.0099 12.8587 18.0096 11.1524 17.9704 9.34937C17.9331 7.63509 17.9049 6.56269 17.7725 5.76771C17.6537 5.05478 17.4852 4.80057 17.3055 4.62255C17.1146 4.43341 16.8626 4.2738 16.1928 4.16554C15.4326 4.04265 14.4109 4.02494 12.7562 4.00455C12.2534 3.99836 11.7537 3.99848 11.25 4.00494C9.59318 4.02618 8.56945 4.0444 7.80782 4.1677C7.13623 4.27643 6.88421 4.43638 6.69393 4.62497C6.51459 4.80273 6.34607 5.057 6.22728 5.77072C6.09488 6.56626 6.06676 7.63943 6.02952 9.35448C6.01745 9.91035 6.00908 10.457 6.00441 11L11.5858 11L9.79289 9.20711C9.40237 8.81658 9.40237 8.18342 9.79289 7.79289C10.1834 7.40237 10.8166 7.40237 11.2071 7.79289L15.4142 12L11.2071 16.2071C10.8166 16.5976 10.1834 16.5976 9.79289 16.2071C9.40237 15.8166 9.40237 15.1834 9.79289 14.7929L11.5858 13L6.00402 13C6.0085 13.5449 6.01672 14.0928 6.02867 14.6492Z" fill="black" fill-opacity="0.56"/>
</svg>
