<svg width="24" height="24" viewBox="0 0 24 24" fill="none" xmlns="http://www.w3.org/2000/svg">
<g opacity="0.1">
<path fill-rule="evenodd" clip-rule="evenodd" d="M9 11.5001C8.44772 11.5001 8 11.9478 8 12.5001C8 13.0524 8.44772 13.5001 9 13.5001H15C15.5523 13.5001 16 13.0524 16 12.5001C16 11.9478 15.5523 11.5001 15 11.5001H9ZM9 15.5001C8.44772 15.5001 8 15.9478 8 16.5001C8 17.0524 8.44772 17.5001 9 17.5001H13C13.5523 17.5001 14 17.0524 14 16.5001C14 15.9478 13.5523 15.5001 13 15.5001H9Z" fill="black" fill-opacity="0.56"/>
<path fill-rule="evenodd" clip-rule="evenodd" d="M10.089 4.00017L10.2727 4.00008L10.4965 4.00002C11.3739 4.0059 11.7766 4.27985 12.0034 4.56294C12.2711 4.8972 12.4322 5.41822 12.4926 6.12674C12.6476 7.94524 13.8578 9.50184 15.8038 9.77381C16.617 9.88745 17.2951 10.0616 17.7538 10.3497C18.1414 10.5933 18.3714 10.9078 18.3743 11.4896C18.3743 11.4899 18.3743 11.4903 18.3743 11.4906L18.3749 11.9028C18.376 12.7401 18.3654 13.5759 18.3429 14.4329C18.3087 15.7386 18.2838 16.6383 18.1892 17.3375C18.098 18.0125 17.952 18.4077 17.7299 18.724C17.5235 19.018 17.2328 19.3012 16.9335 19.4998C16.645 19.6913 16.1481 19.8413 15.2769 19.9209C14.4206 19.9992 13.3526 20.0002 12.0021 20.0002C10.6493 20.0002 9.53634 19.9988 8.6246 19.8952C7.70129 19.7902 7.15119 19.5948 6.82627 19.3317C6.68653 19.2185 6.54083 19.076 6.42463 18.9387C6.12956 18.5903 5.94017 18.146 5.82517 17.3686C5.70562 16.5605 5.68073 15.5098 5.64729 13.9856C5.60427 12.0251 5.62349 10.1625 5.70519 8.12148C5.75578 6.85778 5.78239 6.42526 5.90517 6.05528C6.20798 5.1428 6.99837 4.38341 7.92223 4.11734C8.29579 4.00976 8.75676 4.00017 10.089 4.00017ZM8 12.5001C8 11.9478 8.44772 11.5001 9 11.5001H15C15.5523 11.5001 16 11.9478 16 12.5001C16 13.0524 15.5523 13.5001 15 13.5001H9C8.44772 13.5001 8 13.0524 8 12.5001ZM8 16.5001C8 15.9478 8.44772 15.5001 9 15.5001H13C13.5523 15.5001 14 15.9478 14 16.5001C14 17.0524 13.5523 17.5001 13 17.5001H9C8.44772 17.5001 8 17.0524 8 16.5001Z" fill="black" fill-opacity="0.56"/>
</g>
<path fill-rule="evenodd" clip-rule="evenodd" d="M10.2727 4.00008C10.2157 4.00012 10.1566 4.00017 10.089 4.00017C8.75676 4.00017 8.29579 4.00976 7.92223 4.11734C6.99837 4.38341 6.20798 5.1428 5.90517 6.05528C5.78239 6.42526 5.75578 6.85778 5.70519 8.12148C5.62349 10.1625 5.60427 12.0251 5.64729 13.9856C5.68073 15.5098 5.70562 16.5605 5.82517 17.3686C5.94017 18.146 6.12956 18.5903 6.42463 18.9387C6.54083 19.076 6.68653 19.2185 6.82627 19.3317C7.15119 19.5948 7.70129 19.7902 8.6246 19.8952C9.53634 19.9988 10.6493 20.0002 12.0021 20.0002C13.3526 20.0002 14.4206 19.9992 15.2769 19.9209C16.1481 19.8413 16.645 19.6913 16.9335 19.4998C17.2328 19.3012 17.5235 19.018 17.7299 18.724C17.952 18.4077 18.098 18.0125 18.1892 17.3375C18.2838 16.6383 18.3087 15.7386 18.3429 14.4329C18.3654 13.5759 18.376 12.7401 18.3749 11.9028L18.3743 11.4906C18.3743 11.4903 18.3743 11.4899 18.3743 11.4896C18.3714 10.9078 18.1414 10.5933 17.7538 10.3497C17.2951 10.0616 16.617 9.88745 15.8038 9.77381C13.8578 9.50184 12.6476 7.94524 12.4926 6.12674C12.4322 5.41822 12.2711 4.8972 12.0034 4.56294C11.7766 4.27985 11.3739 4.0059 10.4965 4.00002C10.4165 3.99997 10.3464 4.00002 10.2727 4.00008ZM14.1097 4.25724C14.3372 4.82069 14.4392 5.41512 14.4854 5.9569C14.5733 6.98815 15.1941 7.66915 16.0806 7.79306C16.7217 7.88265 17.4528 8.02449 18.1275 8.30357C18.1263 8.29944 18.1251 8.2953 18.1238 8.29117C17.5799 6.46074 15.9385 4.81306 14.1097 4.25724ZM10.2684 2.00008C10.3451 2.00002 10.4194 1.99997 10.5007 2.00002C12.3625 2.00128 13.5693 2.01168 14.6408 2.32851C17.1332 3.06548 19.3007 5.23011 20.041 7.7215C20.3567 8.78413 20.3706 9.83651 20.3742 11.4841L20.3749 11.9002C20.3761 12.7564 20.3652 13.6105 20.3422 14.4853L20.3408 14.5406C20.3084 15.7776 20.282 16.7861 20.1712 17.6055C20.0555 18.4614 19.8381 19.2019 19.3668 19.8731C19.0172 20.3711 18.5464 20.8298 18.0394 21.1662C17.3227 21.6419 16.4116 21.8255 15.459 21.9126C14.5015 22.0002 13.344 22.0002 12.0426 22.0002H11.9576C10.6585 22.0002 9.43538 22.0002 8.3987 21.8824C7.36177 21.7645 6.34355 21.5142 5.56768 20.886C5.33069 20.6941 5.09534 20.4639 4.89828 20.2311C4.27809 19.4987 3.99341 18.653 3.8467 17.6613C3.70664 16.7145 3.68084 15.538 3.64919 14.0942L3.64777 14.0294C3.60379 12.0252 3.62355 10.1212 3.7068 8.04148C3.70873 7.99324 3.71061 7.94565 3.71248 7.8987C3.75476 6.83307 3.78396 6.09735 4.00696 5.42535C4.51753 3.88682 5.81101 2.64408 7.36873 2.19546C8.04925 1.99947 8.81669 1.99974 9.93464 2.00013C9.98536 2.00015 10.0368 2.00017 10.089 2.00017C10.1527 2.00017 10.2112 2.00012 10.2684 2.00008ZM8 12.5001C8 11.9478 8.44772 11.5001 9 11.5001H15C15.5523 11.5001 16 11.9478 16 12.5001C16 13.0524 15.5523 13.5001 15 13.5001H9C8.44772 13.5001 8 13.0524 8 12.5001ZM8 16.5001C8 15.9478 8.44772 15.5001 9 15.5001H13C13.5523 15.5001 14 15.9478 14 16.5001C14 17.0524 13.5523 17.5001 13 17.5001H9C8.44772 17.5001 8 17.0524 8 16.5001Z" fill="black" fill-opacity="0.56"/>
</svg>
