<svg width="24" height="24" viewBox="0 0 24 24" fill="none" xmlns="http://www.w3.org/2000/svg">
<path opacity="0.1" fill-rule="evenodd" clip-rule="evenodd" d="M12 4C7.58172 4 4 7.58172 4 12C4 16.4183 7.58172 20 12 20C16.4183 20 20 16.4183 20 12C20 7.58172 16.4183 4 12 4ZM7.50294 15.004C7.11242 15.3945 7.11242 16.0277 7.50294 16.4182C7.89347 16.8088 8.52663 16.8088 8.91716 16.4182L14.0719 11.2824V13.8179C14.0719 14.3702 14.5196 14.8179 15.0719 14.8179C15.6241 14.8179 16.0719 14.3702 16.0719 13.8179V7.86817L10.1221 7.86817C9.56983 7.86817 9.12211 8.31588 9.12211 8.86817C9.12211 9.42045 9.56983 9.86817 10.1221 9.86817L12.6576 9.86817L7.50294 15.004Z" fill="black" fill-opacity="0.56"/>
<path d="M7.50294 15.004C7.11242 15.3945 7.11242 16.0277 7.50294 16.4182C7.89347 16.8088 8.52663 16.8088 8.91716 16.4182L14.0719 11.2824V13.8179C14.0719 14.3702 14.5196 14.8179 15.0719 14.8179C15.6241 14.8179 16.0719 14.3702 16.0719 13.8179V7.86817L10.1221 7.86817C9.56983 7.86817 9.12211 8.31588 9.12211 8.86817C9.12211 9.42045 9.56983 9.86817 10.1221 9.86817L12.6576 9.86817L7.50294 15.004Z" fill="black" fill-opacity="0.56"/>
<path fill-rule="evenodd" clip-rule="evenodd" d="M12 2C6.47715 2 2 6.47715 2 12C2 17.5228 6.47715 22 12 22C17.5228 22 22 17.5228 22 12C22 6.47715 17.5228 2 12 2ZM4 12C4 7.58172 7.58172 4 12 4C16.4183 4 20 7.58172 20 12C20 16.4183 16.4183 20 12 20C7.58172 20 4 16.4183 4 12Z" fill="black" fill-opacity="0.56"/>
</svg>
