<svg width="24" height="24" viewBox="0 0 24 24" fill="none" xmlns="http://www.w3.org/2000/svg">
<path d="M15.2375 6.58789H8.74268V18.2564H15.2375V6.58789Z" fill="#FF5A00"/>
<path d="M9.17534 12.4219C9.17534 10.0512 10.2898 7.94716 12 6.58767C10.7414 5.59808 9.15372 5 7.42194 5C3.31946 5 0 8.31946 0 12.4219C0 16.5244 3.31946 19.8439 7.42194 19.8439C9.15372 19.8439 10.7414 19.2458 12 18.2562C10.2874 16.9159 9.17534 14.7926 9.17534 12.4219Z" fill="#EB001B"/>
<path d="M24 12.4219C24 16.5244 20.6805 19.8439 16.5781 19.8439C14.8463 19.8439 13.2586 19.2458 12 18.2562C13.7318 16.8943 14.8247 14.7926 14.8247 12.4219C14.8247 10.0512 13.7102 7.94716 12 6.58767C13.2562 5.59808 14.8439 5 16.5757 5C20.6805 5 24 8.34107 24 12.4219Z" fill="#F79E1B"/>
</svg>
