<svg width="24" height="24" viewBox="0 0 24 24" fill="none" xmlns="http://www.w3.org/2000/svg">
<g clip-path="url(#clip0_1794_28466)">
<path fill-rule="evenodd" clip-rule="evenodd" d="M2.21936 9.00112C2.43377 8.99983 3.07099 8.94244 3.34091 9.85341C3.52273 10.467 3.81235 11.4722 4.20979 12.8689H4.37165C4.79786 11.3964 5.09064 10.3912 5.25 9.85341C5.52273 8.93295 6.20455 9.00114 6.47728 9.00114L8.58143 9.00114V15.5466H6.43682V11.6892H6.29301L5.09749 15.5466H3.48394L2.28843 11.6864H2.14461V15.5466H0V9.00114L2.21936 9.00112ZM11.6611 9.00114V12.8613H11.8321L13.2864 9.68712C13.5687 9.05545 14.1703 9.00114 14.1703 9.00114H16.2457V15.5466H14.0563V11.6864H13.8852L12.4595 14.8606C12.1772 15.4894 11.547 15.5466 11.547 15.5466H9.47165V9.00114H11.6611ZM23.8132 12.1116C23.5078 12.977 22.5488 13.5968 21.4869 13.5968H19.1909V15.5466H17.1089V12.1116H23.8132Z" fill="#0F754E"/>
<path fill-rule="evenodd" clip-rule="evenodd" d="M21.5876 9.00098H17C17.1092 10.4582 18.3641 11.7057 19.6632 11.7057H23.9581C24.206 10.4946 23.3528 9.00098 21.5876 9.00098Z" fill="url(#paint0_linear_1794_28466)"/>
</g>
<defs>
<linearGradient id="paint0_linear_1794_28466" x1="24.0003" y1="10.7024" x2="17" y2="10.7024" gradientUnits="userSpaceOnUse">
<stop stop-color="#1F5CD7"/>
<stop offset="1" stop-color="#02AEFF"/>
</linearGradient>
<clipPath id="clip0_1794_28466">
<rect width="24" height="24" fill="white"/>
</clipPath>
</defs>
</svg>
