<svg width="24" height="24" viewBox="0 0 24 24" fill="none" xmlns="http://www.w3.org/2000/svg">
<g clip-path="url(#clip0_1794_28487)">
<path d="M10.4002 15.6557H8.45605L9.67208 8.13672H11.6161L10.4002 15.6557Z" fill="#00579F"/>
<path d="M17.4477 8.32011C17.0642 8.16798 16.456 8 15.7039 8C13.784 8 12.432 9.02381 12.4237 10.4875C12.4078 11.5675 13.3917 12.1673 14.1276 12.5274C14.8798 12.8953 15.1355 13.1355 15.1355 13.4635C15.1278 13.9672 14.5277 14.1994 13.9679 14.1994C13.1917 14.1994 12.7758 14.0797 12.1438 13.7994L11.8878 13.6793L11.6157 15.3671C12.0717 15.5749 12.9118 15.7592 13.784 15.7673C15.824 15.7673 17.152 14.7593 17.1678 13.1995C17.1755 12.3436 16.656 11.6877 15.5358 11.1518C14.8559 10.8078 14.4394 10.5758 14.4394 10.2238C14.4474 9.90377 14.7916 9.576 15.5592 9.576C16.1913 9.55995 16.6557 9.71187 17.0074 9.8639L17.1833 9.94374L17.4477 8.32011Z" fill="#00579F"/>
<path d="M20.0319 12.992C20.192 12.56 20.8081 10.8882 20.8081 10.8882C20.8 10.9043 20.9679 10.4483 21.0639 10.1684L21.1997 10.8163C21.1997 10.8163 21.5679 12.6161 21.6478 12.992C21.344 12.992 20.4159 12.992 20.0319 12.992ZM22.4317 8.13672H20.9279C20.4641 8.13672 20.1118 8.27259 19.9117 8.76057L17.0239 15.6556H19.0639C19.0639 15.6556 19.3997 14.7276 19.4719 14.5277C19.6957 14.5277 21.6802 14.5277 21.9681 14.5277C22.0239 14.7917 22.2 15.6556 22.2 15.6556H24.0002L22.4317 8.13672Z" fill="#00579F"/>
<path d="M6.8322 8.13672L4.92822 13.2639L4.72017 12.2241C4.36816 11.0242 3.2642 9.72059 2.03223 9.07239L3.7762 15.6477H5.83211L8.888 8.13672H6.8322Z" fill="#00579F"/>
<path d="M3.15998 8.13672H0.0320004L0 8.28864C2.44002 8.9126 4.05599 10.4166 4.71992 12.2244L4.03994 8.76876C3.92799 8.28854 3.58396 8.15256 3.15998 8.13672Z" fill="#FAA61A"/>
</g>
<defs>
<clipPath id="clip0_1794_28487">
<rect width="24" height="24" fill="white"/>
</clipPath>
</defs>
</svg>
