<svg width="24" height="24" viewBox="0 0 24 24" fill="none" xmlns="http://www.w3.org/2000/svg">
<path opacity="0.1" fill-rule="evenodd" clip-rule="evenodd" d="M12 20C16.4183 20 20 16.4183 20 12C20 7.58172 16.4183 4 12 4C7.58172 4 4 7.58172 4 12C4 16.4183 7.58172 20 12 20ZM12 13C11.4477 13 11 12.5523 11 12V8C11 7.44771 11.4477 7 12 7C12.5523 7 13 7.44771 13 8V12C13 12.5523 12.5523 13 12 13ZM11.0813 16.6799C10.8604 16.4665 10.75 16.1949 10.75 15.8651C10.75 15.5353 10.8604 15.2589 11.0813 15.0358C11.3122 14.8224 11.6084 14.7157 11.9699 14.7157C12.3414 14.7157 12.6476 14.8224 12.8886 15.0358C13.1295 15.2589 13.25 15.5353 13.25 15.8651C13.25 16.1949 13.1295 16.4665 12.8886 16.6799C12.6476 16.8933 12.3414 17 11.9699 17C11.6084 17 11.3122 16.8933 11.0813 16.6799Z" fill="#F15D48"/>
<path d="M12 13C11.4477 13 11 12.5523 11 12V8C11 7.44771 11.4477 7 12 7C12.5523 7 13 7.44771 13 8V12C13 12.5523 12.5523 13 12 13Z" fill="#F15D48"/>
<path d="M11.0813 16.6799C10.8604 16.4665 10.75 16.1949 10.75 15.8651C10.75 15.5353 10.8604 15.2589 11.0813 15.0358C11.3122 14.8224 11.6084 14.7157 11.9699 14.7157C12.3414 14.7157 12.6476 14.8224 12.8886 15.0358C13.1295 15.2589 13.25 15.5353 13.25 15.8651C13.25 16.1949 13.1295 16.4665 12.8886 16.6799C12.6476 16.8933 12.3414 17 11.9699 17C11.6084 17 11.3122 16.8933 11.0813 16.6799Z" fill="#F15D48"/>
<path fill-rule="evenodd" clip-rule="evenodd" d="M12 2C6.47715 2 2 6.47715 2 12C2 17.5228 6.47715 22 12 22C17.5228 22 22 17.5228 22 12C22 6.47715 17.5228 2 12 2ZM4 12C4 7.58172 7.58172 4 12 4C16.4183 4 20 7.58172 20 12C20 16.4183 16.4183 20 12 20C7.58172 20 4 16.4183 4 12Z" fill="#F15D48"/>
</svg>
